<?xml version="1.0" encoding="UTF-8"?>
<svg version="1.1" xmlns="http://www.w3.org/2000/svg" width="125" height="125">
<path d="M0 0 C3.96 0 7.92 0 12 0 C13 1 13 1 13.09765625 3.28515625 C13.08605469 4.20167969 13.07445312 5.11820313 13.0625 6.0625 C13.05347656 6.98160156 13.04445313 7.90070312 13.03515625 8.84765625 C13.02355469 9.55792969 13.01195312 10.26820312 13 11 C14.49140021 7.37802806 15.7874262 3.72433382 17 0 C20.96 0 24.92 0 29 0 C28.00872501 5.79514611 26.91217582 11.40493093 25.3125 17.0625 C22.55286506 28.05880046 26.15511612 38.33499346 29 49 C30.69063629 45.61872742 30.59744586 41.77250881 30.9375 38.046875 C31.02249756 37.15389709 31.10749512 36.26091919 31.19506836 35.34088135 C31.46714951 32.47759574 31.73393042 29.61385001 32 26.75 C32.2667044 23.90049936 32.53458227 21.05112254 32.80493164 18.20196533 C32.97306014 16.42805031 33.13901242 14.65392729 33.30249023 12.87957764 C33.37927002 12.06563538 33.4560498 11.25169312 33.53515625 10.41308594 C33.600979 9.70408142 33.66680176 8.9950769 33.73461914 8.2645874 C34.05899636 5.49656347 34.54182568 2.7490459 35 0 C41.6 0 48.2 0 55 0 C57.92870931 25.83121609 57.92870931 25.83121609 59.1875 38.625 C59.27112793 39.44508545 59.35475586 40.2651709 59.44091797 41.11010742 C59.95132552 46.42987129 60.06933888 51.6555728 60 57 C56.37 57 52.74 57 49 57 C47.5216774 54.04335481 47.93967217 51.25770263 48 48 C46.02 48 44.04 48 42 48 C42.020625 49.299375 42.04125 50.59875 42.0625 51.9375 C42.08399454 53.29165633 42.07148199 54.64756083 42 56 C41 57 41 57 38.77514648 57.11352539 C37.81680908 57.10828857 36.85847168 57.10305176 35.87109375 57.09765625 C34.83662109 57.09443359 33.80214844 57.09121094 32.73632812 57.08789062 C31.64771484 57.07951172 30.55910156 57.07113281 29.4375 57.0625 C27.7987793 57.05573242 27.7987793 57.05573242 26.12695312 57.04882812 C23.41791505 57.03699826 20.70898401 57.02051543 18 57 C16.0980447 52.35340814 15.02653257 47.91269157 14 43 C13.67 47.62 13.34 52.24 13 57 C8.71 57 4.42 57 0 57 C0 38.19 0 19.38 0 0 Z M44 19 C43.67 25.27 43.34 31.54 43 38 C44.32 38 45.64 38 47 38 C46.88638398 35.20743781 46.7596411 32.41655882 46.625 29.625 C46.57859375 28.43390625 46.57859375 28.43390625 46.53125 27.21875 C46.48183579 22.63332625 46.48183579 22.63332625 44 19 Z " fill="#E6E6DC" transform="translate(4,32)"/>
<path d="M0 0 C20 0 20 0 26 3 C29.33121272 7.76163845 29.44193143 12.09084832 29.3984375 17.6875 C29.40130768 18.50822998 29.40417786 19.32895996 29.40713501 20.17456055 C29.40916823 21.90251357 29.40369044 23.63048999 29.39111328 25.35839844 C29.37504841 27.9920637 29.39098658 30.62419454 29.41015625 33.2578125 C29.40817369 34.9427117 29.40432974 36.62760994 29.3984375 38.3125 C29.40754654 39.48462036 29.40754654 39.48462036 29.4168396 40.68041992 C29.34518115 46.29526775 28.17169523 50.37586827 24.5 54.8125 C17.97720759 59.97637732 6.49694645 57 0 57 C0 38.19 0 19.38 0 0 Z M13 11 C13 22.55 13 34.1 13 46 C14.98 45.505 14.98 45.505 17 45 C17.02468857 40.4793335 17.04285449 35.9587061 17.05493164 31.43798828 C17.05996552 29.89956987 17.06679308 28.36115625 17.07543945 26.82275391 C17.08754639 24.61359474 17.09323769 22.40449874 17.09765625 20.1953125 C17.10281754 19.50567413 17.10797882 18.81603577 17.11329651 18.10549927 C17.16318164 14.42940345 17.16318164 14.42940345 16 11 C15.01 11 14.02 11 13 11 Z " fill="#E6E6DC" transform="translate(92,32)"/>
<path d="M0 0 C3.96 0 7.92 0 12 0 C12 15.51 12 31.02 12 47 C14.97 46.505 14.97 46.505 18 46 C20.875 46.4375 20.875 46.4375 23 47 C23 50.3 23 53.6 23 57 C15.41 57 7.82 57 0 57 C0 38.19 0 19.38 0 0 Z " fill="#E6E6DC" transform="translate(67,32)"/>
</svg>
